<svg xmlns="http://www.w3.org/2000/svg"><defs><font id="awb-icons" horiz-adv-x="1024"><font-face ascent="896" descent="-128" units-per-em="1024"/><glyph horiz-adv-x="0"/><glyph d="M853.342 896H170.686C76.812 896 0 819.19 0 725.31V42.688C0-51.25 76.812-128 170.686-128h682.656C947.218-128 1024-51.25 1024 42.69v682.62C1024 819.19 947.218 896 853.342 896M311.778 229.212H200.514c-6.702 0-11.708 3.008-14.542 7.584-2.934 4.758-3.084 10.928 0 17.068l118.22 208.626c.126.228.126.38 0 .632l-75.23 130.232c-3.112 6.196-3.566 12.314-.632 17.068 2.834 4.602 8.47 6.954 15.172 6.954h111.264c17.07 0 25.44-10.998 30.978-20.862 0 0 76.04-132.66 76.498-133.392-4.504-7.94-120.118-212.42-120.118-212.42-5.688-10.262-13.704-21.49-30.346-21.49m526.134 516.25L591.56 309.882a.655.655 0 0 1 0-.734l156.862-286.59c3.112-6.168 3.186-12.442.226-17.194-2.83-4.576-8.066-7.104-14.766-7.104h-111.14c-17.044 0-25.566 11.326-31.08 21.192 0 0-157.696 289.292-158.1 290.046 7.888 13.96 247.594 439.046 247.594 439.046 5.968 10.724 13.174 21.192 29.788 21.192H823.35c6.702 0 11.962-2.53 14.792-7.106 2.932-4.752 2.856-11.022-.23-17.168" glyph-name="xing" unicode=""/><glyph d="M212 318.592 107.584.64l139.552 140.064c-9.6 24.224-7.232 65.6 12.384 85.184 26.272 26.304 69.536 25.696 95.808-.608 26.304-26.304 27.712-70.336 1.44-96.64-20-20-63.936-21.152-88.448-10.784L129.984-20.864 440.416 88.192 553.472 291.84 415.744 427.712zm523.392 470.24S543.04 596.512 513.376 566.816c-29.728-29.696-45.248-141.408-45.248-141.408l86.24-86.272s108.896 15.552 140 46.688c31.136 31.104 222.016 222.016 222.016 222.016z" glyph-name="pen" unicode=""/><glyph d="M824.992 587.648c5.696 1.152 14.144 3.008 23.68 5.088h73.888l11.456 16.992c.256.096.672.192.896.192l28.608 41.28c-.384 0-1.088.064-1.376.064l3.008 4.448H564.8l15.392-62.976h109.28l-183.84-165.952c-37.536 51.808-125.472 159.776-186.816 249.12h137.632v47.968l1.568 10.592c-.416.064-1.184.192-1.568.192v4.32H0v-63.008h135.36c52.544-41.056 253.472-292 261.824-317.024 3.328-23.456 6.432-161.76-3.424-172.224-19.744-20.864-109.856-15.328-131.584-16.864l-7.488-42.88c39.68-1.184 168.896 3.232 209.024 3.232 79.136 0 217.728.352 237.312-1.152l2.432 44.928c-20 3.424-129.088.448-144.16 3.872-3.328 21.792-7.072 167.36-3.68 182.432 15.072 43.456 244.352 220.608 269.504 227.36zm66.464-344.192 61.312-4.832 71.456 275.936c-11.936.416-120.352 10.656-134.432 13.376zm-10.592-44.224.352-67.328 31.008-2.72 33.568-2.464 9.856 65.952-35.36 1.696z" glyph-name="yahoo" unicode=""/><glyph d="M447.808 218.72C420.928 77.76 388.096-57.408 290.816-128 260.8 85.088 334.912 245.088 369.312 414.976c-58.688 98.816 7.072 297.568 130.88 248.576 152.352-60.256-131.904-367.264 58.912-405.6 199.232-40 280.512 345.6 156.992 470.976-178.496 181.152-519.584 4.192-477.6-255.04 10.176-63.392 75.68-82.656 26.176-170.08-114.24 25.28-148.32 115.36-143.936 235.52 7.072 196.544 176.64 334.176 346.72 353.216 215.136 24.128 417.024-78.944 444.832-281.28 31.392-228.352-96.992-475.712-327.104-457.888-62.304 4.736-88.48 35.648-137.376 65.344" glyph-name="pinterest" unicode=""/><glyph d="M708.896 891.392c56.192 13.344 118.592-2.816 159.232-44.032 50.72-47.872 65.12-128.064 36.256-190.944-22.24-47.904-67.328-85.76-119.168-96.352-33.472-5.568-69.088-5.024-100.8 8.864-51.744 21.184-90.784 69.632-102.464 124.224-2.208 22.848-2.208 46.24 1.024 69.056 13.504 62.368 64.16 114.112 125.92 129.184m-300.704-61.248c74.592 22.272 159.2-43.456 154.272-121.44 2.784-57.92-44.032-111.392-100.224-121.408-51.264-10.592-107.488 15.552-131.968 61.856-13.376 22.784-16.736 50.08-14.56 76.288 4.512 50.144 44.576 93.024 92.48 104.704m-233.856-28.416c58.432 11.168 118.624-38.976 116.896-98.56 3.904-61.28-58.976-114.72-118.624-101.888-57.856 7.744-96.832 72.416-80.128 127.52 10.528 37.344 43.424 67.392 81.856 72.928m-89.664-272.32c34.496 43.968 97.952 60.672 150.336 42.336 33.44-10.656 59.008-36.224 78.496-64.64 35.136 33.92 82.464 56.8 132 52.928 63.488 0 117.984-42.304 148.16-95.2 32.224 24.512 67.904 46.208 108.608 54.016 74.016 15.552 155.904-7.84 209.408-62.432 43.968-42.816 70.688-103.552 68.928-165.44 1.664-139.712 1.184-279.008 1.184-418.688H516.8c0 70.752.48 140.896 0 211.04-82.944.576-165.44 0-248.32.576 0 35.072 0 70.176-.64 105.184H50.176v259.52c4.992 29.536 13.952 59.008 34.528 80.736v.064z" glyph-name="myspace" unicode=""/><glyph d="M575.87-128H384v512H256v176.45l128 .058-.208 103.952c0 143.952 39.034 231.54 208.598 231.54h141.176V719.516h-88.23c-66.032 0-69.206-24.656-69.206-70.684l-.262-88.324h158.69l-18.704-176.45L576 384z" glyph-name="facebook" unicode=""/><glyph d="M136.294 145.07C61.098 145.07.002 83.736.002 8.994c0-75.154 61.1-135.802 136.292-135.802 75.466 0 136.494 60.648 136.494 135.802-.002 74.742-61.024 136.076-136.494 136.076M.156 548.07V351.812c127.784 0 247.958-49.972 338.458-140.512C428.998 120.982 478.896.264 478.896-128h197.122C676.016 244.82 372.736 548.07.156 548.07M.388 896V699.644c455.782 0 826.756-371.334 826.756-827.644H1024C1024 436.47 564.746 896 .388 896" glyph-name="feed, rss" unicode=""/><glyph d="m0 587.63 41.594-54.544s85.77 67.608 114.36 33.802c28.588-33.802 137.736-441.956 174.17-517.246 31.8-66.03 119.518-153.32 215.714-90.982 96.136 62.34 415.84 335.286 473.066 657.616 57.18 322.226-384.72 254.726-431.53-26.01 116.99 70.236 179.436-28.538 119.57-140.372-59.758-111.724-114.36-184.592-142.952-184.592-28.538 0-50.49 74.768-83.188 205.446-33.798 135.102-33.592 378.46-174.116 350.87C174.17 795.606 0 587.63 0 587.63" glyph-name="vimeo" unicode=""/><glyph d="M0 352c0 123.712 100.288 224 224 224s224-100.288 224-224-100.288-224-224-224S0 228.288 0 352m576 0c0 123.712 100.288 224 224 224s224-100.288 224-224-100.288-224-224-224-224 100.288-224 224" glyph-name="flickr" unicode=""/><glyph d="M512.002-128C229.682-128 0 101.682 0 384s229.682 512 512.002 512C794.324 896 1024 666.318 1024 384S794.324-128 512.002-128m431.796 441.914c-14.962 4.72-135.364 40.632-272.41 18.698 57.204-157.186 80.478-285.208 84.958-311.808C854.46 87.14 924.304 192.23 943.798 313.914M682.832-19.238c-6.506 38.37-31.898 172.09-93.298 331.64-.96-.328-1.922-.64-2.88-.972-246.67-85.958-335.216-257.016-343.086-273.104 74.15-57.824 167.336-92.32 268.436-92.32 60.58 0 118.318 12.39 170.828 34.756M187.098 90.922c9.908 16.96 129.93 215.684 355.476 288.594a480 480 0 0 0 17.236 5.2c-10.98 24.844-22.94 49.714-35.456 74.216-218.398-65.36-430.324-62.63-449.46-62.236-.132-4.442-.222-8.89-.222-13.366 0-112.32 42.58-214.874 112.426-292.408M83.912 472.904c19.558-.26 199.736-1.042 404.302 53.282-72.46 128.812-150.612 237.11-162.142 252.92C203.724 721.398 112.27 608.61 83.912 472.904M409.518 808.5c12.088-16.184 91.518-124.348 163.18-256.014 155.508 58.284 221.34 146.77 229.208 157.974-77.23 68.518-178.782 110.2-289.902 110.2-35.29 0-69.6-4.232-102.486-12.16m441.004-148.612c-9.216-12.474-82.504-106.418-244.202-172.434 10.178-20.832 19.934-42.018 29.016-63.344q4.823-11.34 9.418-22.57c145.518 18.298 290.104-11.028 304.526-14.078-.968 103.224-37.85 198.01-98.758 272.426" glyph-name="dribbble" unicode=""/><glyph d="M957.796 512H900.39c-35.166 0-65.988 29.742-68.39 64 .004 182.668-147.258 320-331.19 320H332.986C149.174 896 .13 748 0 565.334V202.536C0 19.882 149.174-128 332.984-128h358.42C875.352-128 1024 19.882 1024 202.536v234.382C1024 473.42 994.56 512 957.796 512M320 640h192c35.2 0 64-28.8 64-64s-28.8-64-64-64H320c-35.2 0-64 28.8-64 64s28.8 64 64 64m384-512H320c-35.2 0-64 28.8-64 64s28.8 64 64 64h384c35.2 0 64-28.8 64-64s-28.8-64-64-64" glyph-name="blogger" unicode=""/><glyph d="M891.96 381.796c-18.086 0-35.348-3.52-51.064-9.856C830.39 486.298 730.606 576 608.896 576c-29.786 0-58.682-5.63-84.318-15.164-9.96-3.702-12.578-7.52-12.578-14.916V143.206c0-7.766 6.24-14.234 14.124-14.996.336-.034 363.536-.21 365.89-.21C964.918 128 1024 184.816 1024 254.894s-59.134 126.902-132.04 126.902M400 128h32l16 224.22L432 576h-32l-16-223.78zm-96 0h-32l-16 162.75L272 448h32l16-160zm-160 0h32l16 128-16 128h-32l-16-128zM16 192h32l16 64-16 64H16L0 256z" glyph-name="soundcloud" unicode=""/><glyph d="M256 256c0 35.346 28.654 64 64 64s64-28.654 64-64-28.654-64-64-64-64 28.654-64 64m384 0c0 35.346 28.654 64 64 64s64-28.654 64-64-28.654-64-64-64-64 28.654-64 64m3.112-136.778c16.482 12.986 40.376 10.154 53.364-6.332s10.152-40.378-6.334-53.366C644.246 23.366 574.32 0 512 0c-62.322 0-132.248 23.366-178.144 59.522-16.486 12.99-19.32 36.882-6.332 53.368 12.99 16.482 36.882 19.318 53.366 6.332C407.312 98.404 459.612 76 512 76s104.688 22.404 131.112 43.222M1024 384c0 70.692-57.308 128-128 128-48.116 0-89.992-26.57-111.852-65.82-65.792 35.994-145.952 59.246-233.28 64.608l76.382 171.526 146.194-42.2C786.596 602.772 822.162 576 864 576c53.02 0 96 42.98 96 96s-42.98 96-96 96c-36.56 0-68.342-20.442-84.554-50.514L616.54 764.51c-18.224 5.258-37.538-3.722-45.252-21.052l-103.77-233.026c-85.138-5.996-163.262-29.022-227.636-64.236C218.018 485.446 176.116 512 128 512 57.308 512 0 454.692 0 384c0-52.312 31.402-97.254 76.372-117.102C68.302 242.87 64 217.794 64 192c0-176.73 200.576-320 448-320 247.422 0 448 143.27 448 320 0 25.792-4.3 50.862-12.368 74.886C992.602 286.736 1024 331.688 1024 384M864 708c19.882 0 36-16.118 36-36s-16.118-36-36-36-36 16.118-36 36 16.118 36 36 36M64 384c0 35.29 28.71 64 64 64 25.508 0 47.572-15.004 57.846-36.646-33.448-25.366-61.166-54.626-81.666-86.738C80.656 334.086 64 357.128 64 384M512-52C306.55-52 140 57.242 140 192s166.55 244 372 244 372-109.242 372-244S717.45-52 512-52m407.82 376.616c-20.5 32.112-48.218 61.372-81.666 86.738C848.43 432.996 870.492 448 896 448c35.29 0 64-28.71 64-64 0-26.872-16.656-49.914-40.18-59.384" glyph-name="reddit" unicode=""/><glyph d="M880.634 765.226c25.698-12.576 48.094-30.486 64.502-52.482 34.536-46.3 44.236-109.372 28.836-187.466-15.56-79.026-50.416-145.734-101.166-194.044a287 287 0 0 0-29.804-27.08c-54.356-42.802-122.998-65.428-198.508-65.428h-240.06L339.87-64H207.446l10.086 46.3h46.128l64.564 302.726h188.27c180.25 0 330.938 111.078 371.258 299.936C933.474 798.796 780.154 896 648.342 896H199.064L0-17.7h152.032L128-128h263.66l64.564 302.726h188.27c180.25 0 330.938 111.078 371.258 299.936 33.716 157.68-40.804 251.932-135.118 290.564m-458.29-55.308h129.132c64.592 0 107.602-55.538 88.786-124.956-16.136-69.44-83.386-124.976-150.64-124.976H365.864z" glyph-name="paypal" unicode=""/><glyph d="M231.744 779.136c0-60.448-44.64-109.344-118.048-109.344C44.64 669.792 0 718.72 0 779.136c0 61.856 46.112 109.376 116.608 109.376s113.728-47.552 115.136-109.376M5.824-120.448V583.36h218.752v-703.808zm349.664 479.264c0 87.776-2.912 161.216-5.792 224.512H539.68l10.144-97.888h4.288c28.8 46.112 99.328 113.696 217.344 113.696 143.936 0 251.84-96.448 251.84-303.712v-415.936h-218.72v390.016c0 90.752-31.712 152.608-110.88 152.608-60.448 0-96.352-41.696-112.224-81.984-5.792-14.432-7.2-34.56-7.2-54.688v-405.952H355.52z" glyph-name="linkedin" unicode=""/><glyph d="M702.432 180.128h51.872V-32.704h-51.872zM246.944 193.44h-68.192c-74.912 0-136.192-57.504-136.192-127.712v-95.776c0-17.6 15.328-31.936 34.08-31.936h272.384c18.752 0 34.08 14.336 34.08 31.936v95.776c.032 70.208-61.248 127.712-136.16 127.712m93.632-212.864H85.152v85.152c0 46.944 41.984 85.12 93.632 85.12h68.192c51.616 0 93.632-38.176 93.632-85.12v-85.152zM212.8 739.744c-91.168 0-212.8-121.6-212.8-121.6V319.392h425.728v298.752s-121.664 121.6-212.928 121.6m170.336-377.792H42.592v237.984c45.28 41.824 121.728 97.248 170.24 97.248 48.608 0 125.056-55.392 170.336-97.248V361.952zM510.848 832V448.864h383.136V832zm340.576-340.576H553.44v297.984h297.984zm42.592-129.056h43.488V-62.016h-43.488zm-426.656 0h43.488V-62.016H467.36zm2.24-380.864h437.28v-43.488H469.6zm-85.12 637.632h159.68v-43.488H384.48zm477.536 0h159.68v-43.488h-159.68zm44.864-256.768h114.848V318.88H906.88zm-510.848 0h114.816V318.88H396.032zm582.176 242.144h43.488V322.464h-43.488zm-593.728 0h43.488V318.88H384.48z" glyph-name="digg" unicode=""/><glyph d="M304.448 859.168 0 669.504l208.576-174.848 303.36 197.056zm391.584-804.8c-5.472 0-10.848 1.856-15.232 5.536L511.936 199.936 343.072 59.84c-4.384-3.616-9.792-5.536-15.2-5.536-4.544 0-9.088 1.248-13.024 3.84l-125.12 81.92V91.68l322.176-202.848L834.08 91.744v48.384l-125.088-81.92c-3.904-2.592-8.416-3.84-12.96-3.84m327.808 615.136L719.456 859.136l-207.52-167.424L815.264 494.72zM511.936 305.12 700 148.96l300.864 196.704-185.6 148.96zM323.872 149.024l188.064 156.16L208.608 494.72 23.04 345.696z" glyph-name="dropbox" unicode=""/><glyph d="m576.032 448-.002-234.184c0-59.418-.77-93.656 5.53-110.5 6.25-16.754 21.918-34.146 38.99-44.202 22.684-13.588 48.542-20.376 77.708-20.376 51.854 0 82.478 6.848 133.742 40.54V-74.666c-43.7-20.552-81.866-32.594-117.324-40.922-35.5-8.242-73.86-12.406-115.064-12.406-46.828 0-74.456 5.886-110.41 17.656-35.958 11.868-66.66 28.806-92.02 50.54-25.45 21.922-43.022 45.208-52.848 69.832-9.826 24.636-14.716 60.414-14.716 107.244v359.1H192.192v145.006c40.208 13.042 85.164 31.788 113.78 56.152 28.754 24.45 51.766 53.706 69.106 87.944 17.392 34.146 29.348 77.712 35.872 130.516h165.084L576.032 640H832V448z" glyph-name="tumblr" unicode=""/><glyph d="M256 512h128v128H256zm192 0h128v128H448zm192 128V512h128v128zM256 320h128v128H256zm192 0h128v128H448zm192 0h128v128H640zM256 128h128v128H256zm192 0h128v128H448zm192 0h128v128H640z" glyph-name="grid" unicode=""/><glyph d="M1023.04 55.488c0-50.24-41.152-91.328-91.392-91.328H91.296C41.024-35.808 0 5.248 0 55.488V676.64C0 726.88 41.024 768 91.296 768h840.32c50.24 0 91.392-41.12 91.392-91.36V55.488zm-91.424 639.456H91.296c-9.76 0-18.24-8.576-18.24-18.304 0-65.088 32.448-121.536 83.904-162.112 76.48-59.968 152.992-120.448 228.832-180.96 30.304-24.512 85.088-77.12 125.024-77.12H512c40 0 94.848 52.64 124.992 77.12 75.936 60.512 152.512 120.992 229.024 180.96 37.088 29.12 83.936 92.512 83.936 140.96 0 14.336 3.36 39.456-18.336 39.456m18.336-200.928a299 299 0 0 0-39.456-37.696c-81.6-62.816-163.744-126.816-243.2-193.024C624.544 227.328 571.392 183.36 512 183.36h-1.152c-59.296 0-112.448 43.936-155.296 79.936-79.328 66.176-161.44 130.208-243.2 193.024-14.208 11.36-27.296 23.968-39.296 37.696V55.488c0-9.632 8.48-18.24 18.24-18.24h840.32c9.696 0 18.304 8.64 18.304 18.24v438.528z" glyph-name="mail" unicode=""/><glyph d="M957.888-95.104 534.24 881.888C530.528 890.464 522.048 896 512.704 896s-17.824-5.536-21.504-14.08L66.112-95.072a23.53 23.53 0 0 1 1.92-22.304C72.384-123.968 79.744-128 87.648-128H448V85.376l-127.968 42.656c-17.696 0-32 14.304-32 32s14.304 32 32 32L448 149.376V352c0 17.696 14.304 32 32 32h64c17.696 0 32-14.304 32-32v-48l95.968 48c17.696 0 32-14.304 32-32s-14.304-32-32-32L576 240.032v-112l159.968 96c17.696 0 32-14.304 32-32s-14.304-32-32-32L576 64.032V-128h360.352c7.936 0 15.296 4 19.616 10.624 4.352 6.592 5.024 15.008 1.92 22.272" glyph-name="forrst" unicode=""/><glyph d="M975.31 318.062c2.812 20.8 4.43 41.946 4.43 63.472 0 258.31-210.542 467.744-470.206 467.744a467.5 467.5 0 0 1-75.732-6.16c-44.144 28.768-96.684 45.534-153.224 45.534C125.532 888.652 0 763.036 0 608.04c0-56.396 16.598-108.788 45.18-152.778-3.85-24.034-5.818-48.646-5.818-73.718 0-258.352 210.434-467.764 470.17-467.764 29.314 0 57.854 2.854 85.592 7.866 43.1-26.738 93.868-42.296 148.292-42.296C898.42-120.652 1024 4.996 1024 159.976c-.006 58.586-17.92 113.056-48.69 158.086M553.48 36.808c-149.41-7.784-219.328 25.274-283.378 85.382-71.53 67.134-42.796 143.708 15.48 147.602 58.244 3.888 93.214-66.026 124.3-85.472 31.048-19.376 149.188-63.52 211.588 7.816 67.952 77.656-45.188 117.84-128.118 130.004-118.406 17.532-267.9 81.584-256.27 207.814 11.632 126.148 107.164 190.828 207.7 199.952 128.154 11.634 211.582-19.414 277.57-75.72 76.3-65.058 35.016-137.788-13.598-143.64-48.424-5.818-102.808 107.008-209.582 108.704-110.054 1.728-184.434-114.522-48.572-147.568 135.932-33.01 281.5-46.572 333.922-170.834 52.458-124.274-81.508-256.25-231.042-264.04" glyph-name="skype" unicode=""/><glyph d="m953.396 821.358-4.028 4.042c-94.148 94.134-248.194 94.134-342.326 0L388.936 607.264c-94.134-94.132-94.134-248.176 0-342.31l4.026-4.026c7.832-7.848 16.146-14.924 24.736-21.458l79.848 79.85c-9.302 5.494-18.126 12.072-26.116 20.06l-4.042 4.042c-51.114 51.098-51.114 134.272 0 185.39l218.128 218.112c51.116 51.118 134.274 51.118 185.386 0l4.042-4.024c51.1-51.116 51.1-134.292 0-185.39l-98.686-98.686c17.132-42.308 25.248-87.4 24.538-132.386L953.4 479.042c94.134 94.136 94.134 248.178-.004 342.316M631.042 507.066c-7.832 7.832-16.146 14.922-24.736 21.44l-79.848-79.832c9.304-5.496 18.126-12.074 26.116-20.062l4.042-4.04c51.116-51.116 51.116-134.272 0-185.388L338.486 21.05c-51.118-51.102-134.276-51.102-185.388 0l-4.042 4.042c-51.098 51.12-51.098 134.276 0 185.388l98.688 98.686c-17.134 42.306-25.246 87.402-24.538 132.386L70.604 288.954c-94.136-94.132-94.136-248.178 0-342.324l4.026-4.032c94.152-94.128 248.192-94.128 342.328 0l218.11 218.118c94.134 94.132 94.134 248.194 0 342.326z" glyph-name="link" unicode=""/><glyph d="M889.366 158.08c-44.8 58.454-98.986 96.426-176.618 117.952L640 21.334c0-23.466-19.2-42.666-42.666-42.666s-42.666 19.2-42.666 42.666V224c0 29.44-23.894 53.334-53.334 53.334S448 253.44 448 224V21.334c0-23.466-19.2-42.666-42.666-42.666s-42.666 19.2-42.666 42.666l-72.746 254.698c-77.654-21.76-131.84-59.498-176.64-117.952C95.574 135.04 85.974 88.746 85.334 64V-42.666c0-47.146 38.186-85.334 85.334-85.334h661.334c47.146 0 85.334 38.186 85.334 85.334V64c-.642 24.746-10.242 71.04-27.97 94.08M501.334 362.666c143.786 0 224 183.04 224 307.628S625.066 896 501.334 896s-224-101.12-224-225.706 77.652-307.628 224-307.628" glyph-name="user" unicode=""/><glyph d="M889.366 158.08c-24.96 32.618-52.886 58.88-86.4 79.552C751.146 122.666 635.52 42.666 501.334 42.666s-249.814 80-301.674 194.986c-33.28-20.694-61.418-46.934-86.378-79.552-17.708-23.06-27.33-69.354-27.948-94.1.214-6.4 0-106.666 0-106.666 0-47.146 38.186-85.334 85.334-85.334h661.334c47.146 0 85.334 38.186 85.334 85.334 0 0-.214 100.266 0 106.666-.642 24.746-10.242 71.04-27.97 94.08M385.472 293.334c-17.898-1.92-34.986-4.266-51.178-7.04-18.56-4.694-32.64-21.546-32.64-41.6 0-8.32 2.346-15.766 6.4-22.4C352.854 164.906 422.806 128 501.334 128c76.586 0 144.854 34.986 189.866 89.814 5.952 7.254 9.366 16.64 9.366 26.88 0 20.906-15.146 38.4-35.2 42.026a691 691 0 0 1-52.886 7.488c-24.106 4.458-42.24 21.526-42.24 47.126 0 23.466 17.472 41.366 40.96 44.374 2.326.426 7.872.618 7.872.618 114.794 8.128 192.874 31.382 244.266 75.754 7.062 7.466 11.328 17.494 11.328 28.586 0 22.186-16.854 40.32-38.4 42.454-63.36 12.8-110.932 65.28-110.932 128.214v8.96c0 124.586-100.268 225.706-224 225.706s-224-101.12-224-225.706v-8.96c0-62.934-47.574-115.414-110.934-128.214-21.546-2.134-38.4-20.266-38.4-42.454 0-11.094 4.266-21.12 11.286-28.586 51.648-44.374 129.706-67.626 244.714-75.754 3.414 0 6.634-.214 9.6-.618 23.872-3.414 38.806-20.48 38.806-44.374.02-27.308-20.438-44.8-46.934-48" glyph-name="user2" unicode=""/><glyph d="M778.189 448H245.76c-28.314 0-30.72-22.938-30.72-51.2s2.406-51.2 30.72-51.2h532.429c28.314 0 30.771 22.938 30.771 51.2s-2.458 51.2-30.771 51.2" glyph-name="minus" unicode=""/><glyph d="M778.189 448h-215.04v215.04c0 28.262-22.886 30.72-51.2 30.72-28.262 0-51.2-2.406-51.2-30.72V448H245.76c-28.314 0-30.72-22.938-30.72-51.2s2.406-51.2 30.72-51.2h214.989V130.56c0-28.262 22.938-30.72 51.2-30.72 28.314 0 51.2 2.458 51.2 30.72V345.6h215.04c28.314 0 30.771 22.938 30.771 51.2s-2.458 51.2-30.771 51.2" glyph-name="plus" unicode=""/><glyph d="M737.229 16.998c13.722-13.875 13.722-36.25 0-50.125s-35.891-13.875-49.613 0L286.72 371.711c-13.722 13.875-13.722 36.301 0 50.125l400.896 404.89c13.722 13.875 35.891 13.875 49.613 0s13.722-36.25 0-50.125L371.661 396.799z" glyph-name="arrow-left" unicode=""/><glyph d="M132.163 609.252c-13.875 13.722-36.301 13.722-50.125 0-13.824-13.67-13.824-35.891 0-49.613l404.89-400.896c13.875-13.722 36.25-13.722 50.125 0l404.89 400.896c13.824 13.722 13.875 35.891 0 49.613s-36.352 13.722-50.125.051L511.965 243.684z" glyph-name="arrow-down" unicode=""/><glyph d="M286.704 16.998c-13.722-13.875-13.722-36.25 0-50.125s35.891-13.875 49.613 0l400.896 404.838c13.722 13.875 13.722 36.301 0 50.125l-400.896 404.89c-13.722 13.875-35.891 13.875-49.613 0s-13.722-36.25 0-50.125l365.568-379.802z" glyph-name="uniE620" unicode=""/><glyph d="m146.746 274.746 320-320c24.992-24.994 65.516-24.994 90.51 0l320 320c24.992 24.994 24.992 65.516 0 90.51-24.994 24.994-65.516 24.994-90.51 0L576 154.51V768c0 35.346-28.654 64-64 64s-64-28.654-64-64V154.51L237.254 365.256C224.758 377.752 208.378 384 192 384s-32.758-6.248-45.254-18.744c-24.994-24.994-24.994-65.516 0-90.51" glyph-name="arrow-down2" unicode=""/><glyph d="M832 768H192C86.4 768 0 681.6 0 576V192C0 86.4 86.4 0 192 0h640c105.6 0 192 86.4 192 192v384c0 105.6-86.4 192-192 192M384 128v512l320-256z" glyph-name="youtube" unicode=""/><glyph d="M107.52 768c14.464 0 28.032-2.944 40.768-8.576 12.736-5.76 24.064-13.312 33.792-22.72 9.856-9.472 17.6-20.8 23.296-34.176 5.76-13.312 8.576-27.136 8.576-41.6 0-15.168-2.816-29.184-8.576-42.048-5.632-12.864-13.44-24.064-23.296-33.472-9.728-9.536-21.184-17.024-34.048-22.592-12.864-5.504-26.496-8.384-40.512-8.384-15.168 0-29.184 2.816-42.048 8.384-12.992 5.568-24.192 13.056-33.6 22.528-9.408 9.344-16.96 20.608-22.72 33.472S.576 645.696.576 660.864c0 14.528 2.816 28.288 8.576 41.6 5.76 13.376 13.312 24.704 22.72 34.176 9.408 9.408 20.608 16.96 33.6 22.784C78.336 765.056 92.352 768 107.52 768m0-308.928c14.464 0 28.032-2.816 40.768-8.576 12.736-5.632 24.064-13.376 33.792-22.72 9.856-9.344 17.6-20.8 23.296-34.048 5.76-13.376 8.576-27.136 8.576-41.6 0-15.168-2.816-29.184-8.576-42.048-5.632-13.056-13.44-24.256-23.296-33.6a116.6 116.6 0 0 0-34.048-22.72c-12.864-5.76-26.496-8.64-40.512-8.64q-22.752 0-42.048 8.64c-12.992 5.632-24.192 13.312-33.6 22.656-9.408 9.408-16.96 20.608-22.72 33.664-5.76 12.864-8.576 26.88-8.576 42.048 0 14.464 2.816 28.224 8.576 41.6 5.76 13.248 13.312 24.64 22.72 34.048s20.608 17.088 33.6 22.784c12.864 5.696 26.88 8.512 42.048 8.512m0-309.248c14.464 0 28.032-2.88 40.768-8.384 12.736-5.568 24.064-13.12 33.792-22.528 9.856-9.344 17.6-20.736 23.296-34.112 5.76-13.248 8.576-27.136 8.576-41.472 0-15.104-2.816-29.312-8.576-42.176-5.632-12.992-13.44-24.128-23.296-33.536-9.728-9.344-21.184-17.024-34.048-22.656-12.864-5.76-26.496-8.64-40.512-8.64-29.504 0-54.72 10.368-75.648 31.232C10.944-11.52.512 13.696.512 43.328c0 14.4 2.816 28.224 8.576 41.472 5.76 13.376 13.312 24.768 22.72 34.112 9.344 9.344 20.608 16.96 33.6 22.528 12.928 5.504 26.944 8.384 42.112 8.384m872.768 585.984c11.456 0 21.312-4.096 29.632-12.48 8.384-8.32 12.544-18.56 12.544-30.72v-63.232c0-12.224-4.16-22.528-12.544-30.72-8.32-8.256-18.176-12.416-29.632-12.416H333.184c-12.16 0-22.4 4.16-30.72 12.416-8.256 8.256-12.416 18.56-12.416 30.72v63.232c0 12.16 4.16 22.4 12.416 30.72 8.384 8.384 18.56 12.48 30.72 12.48zm0-308.864c11.456 0 21.312-4.16 29.632-12.416 8.384-8.384 12.544-18.688 12.544-30.784v-63.232c0-12.224-4.16-22.528-12.544-30.848-8.32-8.256-18.176-12.416-29.632-12.416H333.184c-12.16 0-22.4 4.16-30.72 12.416-8.256 8.384-12.48 18.624-12.48 30.912v63.232c0 12.096 4.16 22.4 12.416 30.784 8.384 8.192 18.56 12.416 30.72 12.416zm0-308.864c11.456 0 21.312-4.16 29.632-12.416 8.384-8.256 12.544-18.56 12.544-30.656V11.776c0-12.224-4.16-22.4-12.544-30.272-8.32-7.936-18.176-11.904-29.632-11.904H333.184q-18.24 0-30.72 11.904c-8.256 7.872-12.416 17.984-12.416 30.272v63.232c0 12.096 4.16 22.464 12.416 30.656 8.384 8.256 18.56 12.416 30.72 12.416z" glyph-name="list" unicode=""/><glyph d="M0 768V-64h1024v832zM960 0H64v704h896zM704 544c0 53.019 42.981 96 96 96s96-42.981 96-96-42.981-96-96-96-96 42.981-96 96M896 64H128l192 512 256-320 128 96z" glyph-name="image" unicode=""/><glyph d="M128 640V0h896v640zm832-533.334L832 320 686.934 199.112 576 384 192 64v512h768zM256 416c0 53.019 42.981 96 96 96s96-42.981 96-96-42.981-96-96-96-96 42.981-96 96m640 352H0V128h64v576h832z" glyph-name="images" unicode=""/><glyph d="M225 448c123.712 0 224-100.29 224-224C449 100.288 348.712 0 225 0S1 100.288 1 224l-1 32c0 247.424 200.576 448 448 448V576c-85.474 0-165.834-33.286-226.274-93.726a324.6 324.6 0 0 1-31.83-37.02A226 226 0 0 0 225 448m576 0c123.71 0 224-100.29 224-224C1025 100.288 924.71 0 801 0S577 100.288 577 224l-1 32c0 247.424 200.576 448 448 448V576c-85.474 0-165.834-33.286-226.274-93.726a324.5 324.5 0 0 1-31.832-37.02A226 226 0 0 0 801 448" glyph-name="quotes-left" unicode=""/><glyph d="M128 704V0h704v704zM256 64h-64v64h64zm0 96h-64v64h64zm0 96h-64v64h64zm0 128h-64v64h64zm0 96h-64v64h64zm0 96h-64v64h64zM640 64H320v256h320zm0 320H320v256h320zM768 64h-64v64h64zm0 96h-64v64h64zm0 96h-64v64h64zm0 128h-64v64h64zm0 96h-64v64h64zm0 96h-64v64h64z" glyph-name="film" unicode=""/><glyph d="M192 317.714v-443.43a226 226 0 0 1 32-2.286h32V320h-32a226 226 0 0 1-32-2.286M768 320v-448h32c10.868 0 21.546.79 32 2.286v443.428A226 226 0 0 1 800 320zm256 64c0 282.77-229.23 512-512 512S0 666.77 0 384c0-61.418 10.828-120.306 30.656-174.874C11.184 175.924 0 137.274 0 96 0 6.646 52.326-70.478 128-106.432v404.864c-20.126-9.562-38.58-22.06-54.858-36.904C67.15 290.748 64 321.006 64 352c0 247.424 200.576 448 448 448s448-200.576 448-448c0-30.994-3.148-61.252-9.142-90.472-16.28 14.844-34.73 27.342-54.858 36.904v-404.864C971.676-70.478 1024 6.646 1024 96c0 41.274-11.184 79.924-30.656 113.126C1013.172 263.694 1024 322.582 1024 384" glyph-name="headphones" unicode=""/><glyph d="M480 768c-50.666 0-99.582-7.95-145.386-23.628-42.924-14.694-81.114-35.436-113.502-61.646C161.068 634.136 128 571.924 128 507.552c0-35.99 10.066-70.948 29.92-103.898 20.686-34.34 51.898-65.794 90.26-90.958a128 128 0 0 0 56.362-87.95c.902-5.99 1.63-12.006 2.18-18.032a307 307 0 0 1 8.114 7.794 128.02 128.02 0 0 0 90.322 37.312c5.348 0 10.718-.336 16.094-1.018A469 469 0 0 1 480 247.106c50.666 0 99.58 7.948 145.384 23.628 42.926 14.692 81.116 35.434 113.504 61.644C798.934 380.968 832 443.18 832 507.552s-33.066 126.582-93.112 175.174c-32.388 26.212-70.578 46.952-113.504 61.646C579.58 760.05 530.666 768 480 768m0 128c265.096 0 480-173.914 480-388.448S745.096 119.104 480 119.104a595 595 0 0 0-74.834 4.71C302.06 21.12 182.994 2.706 64 0v25.134c64.252 31.354 116 88.466 116 153.734 0 9.106-.712 18.048-2.03 26.794C69.412 276.876 0 385.65 0 507.552 0 722.086 214.904 896 480 896M996 25.314c0-55.942 36.314-104.898 92-131.772V-128c-103.126 2.318-197.786 18.102-287.142 106.126A521 521 0 0 0 736-25.914c-95.47 0-183.408 25.758-253.614 69.04 144.674.506 281.26 46.854 384.834 130.672 52.208 42.252 93.394 91.826 122.414 147.348C1020.4 380.012 1036 442.728 1036 507.552c0 10.448-.45 20.836-1.258 31.168C1107.312 478.786 1152 397.098 1152 307.044c0-104.488-60.158-197.722-154.24-258.764A152.4 152.4 0 0 1 996 25.314" glyph-name="bubbles" horiz-adv-x="1152" unicode=""/><glyph d="M880 549.248q-23.467 0-43.733 8.747t-35.499 24.021q-15.275 15.232-24.021 35.499Q768 637.739 768 661.248q0 23.04 8.747 43.52t24.021 35.712q15.232 15.275 35.499 24.021 20.224 8.747 43.733 8.747 23.04 0 43.52-8.747t35.712-24.021q15.275-15.232 24.021-35.712t8.747-43.52q0-23.467-8.747-43.733t-24.021-35.499Q944 566.741 923.52 557.995T880 549.248m0 160q-20.011 0-34.005-13.995T832 661.248t13.995-34.005T880 613.248t34.005 13.995T928 661.248t-13.995 34.005T880 709.248m144-240V231.253q0-33.024-12.501-62.293-12.501-29.227-34.261-50.944-21.76-21.76-50.987-34.261Q896.982 71.254 864 71.254q-18.987 0-38.741 4.48-19.755 4.523-36.267 14.037Q776.491 49.238 752.512 16q-24.021-33.28-56.277-57.003-32.256-23.765-71.253-36.736-38.997-13.013-80.981-13.013-48.981 0-92.245 16.981-43.264 17.024-77.013 47.019-33.707 29.995-55.979 70.997t-28.757 89.003H42.54q-17.536 0-30.037 12.501T.002 175.744v427.008q0 17.493 12.501 29.995t29.995 12.501h366.507q-14.507 30.507-14.507 64 0 31.019 11.733 58.24 11.776 27.264 32 47.531 20.267 20.224 47.531 32 27.221 11.733 58.24 11.733t58.24-11.733q27.264-11.776 47.531-32 20.224-20.267 32-47.531 11.733-27.221 11.733-58.24t-11.733-58.24q-11.776-27.264-32-47.488-20.267-20.267-47.531-32-27.221-11.776-58.24-11.776-8.021 0-16 1.024-8.021.981-16 2.475v-45.995h464q20.011 0 34.005-13.995t13.995-34.005zM544 794.752q-17.493 0-33.28-6.741-15.701-6.741-27.221-18.517-11.52-11.733-18.261-27.264-6.741-15.488-6.741-32.981t6.741-33.28q6.784-15.701 18.261-27.221 11.52-11.52 27.264-18.261T544 623.746t32.981 6.741q15.531 6.784 27.307 18.261 11.691 11.52 18.475 27.264 6.741 15.744 6.741 33.237t-6.741 32.981q-6.784 15.531-18.517 27.307-11.733 11.733-27.264 18.475-15.488 6.741-32.981 6.741zM295.979 477.269h96v79.957H120.064v-80h96v-256h80zM736 165.248v288H512V175.744q0-17.493-12.501-29.995t-29.995-12.501H354.517q6.485-34.517 23.723-64 17.28-29.483 42.027-50.773 24.747-21.205 56.235-33.237 31.488-11.989 67.499-11.989 39.509 0 74.496 15.019 34.987 14.976 61.269 41.216 26.24 26.283 41.216 61.013 15.019 34.773 15.019 74.752zm224 66.005v221.995H800v-292.48q13.013-13.013 29.483-19.285 16.512-6.229 34.517-6.229 20.011 0 37.504 7.509 17.493 7.467 30.507 20.48 12.971 13.013 20.48 30.507T960 231.254z" glyph-name="teams" unicode=""/><glyph d="M344.536-107.34C53.94 313.938 0 357.174 0 512c0 212.078 171.922 384 384 384s384-171.922 384-384c0-154.826-53.94-198.062-344.536-619.34-19.07-27.548-59.86-27.546-78.928 0M384 352c88.366 0 160 71.634 160 160s-71.634 160-160 160-160-71.634-160-160 71.634-160 160-160" glyph-name="map-marker-alt" horiz-adv-x="768" unicode=""/><glyph d="M512.208-119.747c-16.126 0-31.849 4.031-45.556 12.094L102.205 99.163c-28.22 16.126-45.959 45.959-45.959 78.211v413.631c0 32.252 17.335 62.085 45.959 78.211l364.447 206.816c13.707 7.66 29.43 11.691 45.556 11.691s31.849-4.031 45.556-12.094l364.447-206.816c28.22-16.126 45.556-45.959 45.556-78.211V176.971c0-32.252-17.335-62.085-45.959-78.211L557.764-108.056c-13.707-7.66-29.43-11.691-45.556-11.691m0 960.706c-7.66 0-15.32-2.016-22.173-5.644L125.991 628.096c-13.707-7.66-21.77-21.77-21.77-37.09V177.375c0-15.32 8.466-29.43 21.77-37.09L490.438-66.531c12.901-7.257 31.043-7.257 44.346 0l364.447 206.816c13.707 7.66 21.77 21.77 21.77 37.09v413.631c0 15.32-8.466 29.43-21.77 37.09L534.784 834.912c-7.257 4.031-14.917 6.047-22.576 6.047M442.06 42.722c-8.869 0-17.335 2.419-24.995 7.257L164.693 206.804c-14.11 8.869-22.576 24.592-22.576 41.524s8.466 32.655 22.576 41.524l41.121 26.205-41.121 26.205c-14.11 8.869-22.576 24.592-22.576 41.524s8.466 32.655 22.576 41.524l41.121 26.205-41.121 26.205c-14.11 8.869-22.576 24.592-22.576 41.524s8.466 32.655 22.576 41.524l252.775 157.228c7.66 4.838 16.126 7.257 24.995 7.257 26.205 0 47.572-21.77 47.572-48.781v-74.986c0-16.932-8.466-32.655-22.576-41.524l-175.37-108.447 63.294-40.315 131.83 83.452c14.917 9.676 35.074 9.676 50.394 0l131.83-83.452 63.294 40.315-174.967 108.044c-14.11 8.869-22.576 24.995-22.576 41.524v74.986c0 13.304 5.241 25.802 14.513 35.074 8.869 8.869 20.964 13.707 33.461 13.707 8.869 0 17.335-2.419 24.995-7.257l252.372-156.825c14.11-8.869 22.576-24.592 22.576-41.524s-8.466-32.655-22.576-41.524l-41.121-26.205 41.121-26.205c14.11-8.869 22.576-24.592 22.576-41.524s-8.466-32.655-22.576-41.524l-41.121-26.205 41.121-26.205c14.11-8.869 22.576-24.592 22.576-41.524s-8.466-32.655-22.576-41.524L607.754 49.576c-7.66-4.838-16.126-7.257-24.995-7.257-26.205 0-47.572 21.77-47.572 48.781v74.986c0 16.932 8.466 32.655 22.576 41.524L732.73 316.057l-63.294 40.315-131.83-83.452c-14.917-9.676-35.074-9.676-50.394 0l-131.83 83.452-63.294-40.315 174.967-108.044c14.11-8.869 22.576-24.995 22.576-41.524V91.503c.403-27.011-20.964-48.781-47.572-48.781zM248.951 289.047l-60.069-37.896q-1.209-.604-1.209-2.419c0-1.815.403-2.016 1.209-2.419L441.254 89.488c.403-.403.806-.403.806-.403s2.016.403 2.016 2.419v74.986q0 1.814-1.209 2.419L248.952 289.048zm526.514 0L581.147 168.908c-.403-.403-.806-1.209-.806-2.419V91.503c0-2.419 2.016-2.419 2.016-2.419s.403 0 .806.403l252.775 157.228c.403.403.806 1.209.806 2.419s-.403 2.016-1.209 2.419l-60.069 37.493zm-376.945 94.74 112.882-71.761h1.613l112.882 71.761-112.882 71.761h-1.613zm313.65 0 63.698-40.315 59.666 37.896q1.209.604 1.209 2.419c0 1.815-.403 2.016-1.209 2.419l-59.666 37.896zm-463.219 40.718-59.666-37.896q-1.209-.604-1.209-2.419c0-1.815.403-2.016 1.209-2.419l59.666-37.896 63.698 40.315zM442.06 678.893s-.403 0-.806-.403L188.479 521.262c-.403-.403-.806-1.209-.806-2.419s.403-2.016 1.209-2.419l60.069-37.896 194.318 120.139c.403.403.806 1.209.806 2.419v75.389c0 2.419-2.016 2.419-2.016 2.419zm140.296 0c-.403 0-.806 0-1.209-.403s-.806-1.613-.806-2.016v-74.986q0-1.814 1.209-2.419L775.465 478.93l60.069 37.896q1.209.604 1.209 2.419c0 1.815-.403 2.016-1.209 2.419L583.162 678.489z" glyph-name="FB_logo_black-solid-1" unicode=""/><glyph d="M862.805 896c59.989 0 108.373-48.512 111.232-105.6V-128L859.818-31.019l-62.72 57.088-68.437 59.648 28.587-94.08H158.293C98.474-8.363 49.92 37.077 49.92 97.28v692.907c0 57.088 48.64 105.685 108.587 105.685zM601.771 653.525h-1.28l-8.619-8.533c88.448-25.6 131.243-65.579 131.243-65.579-57.003 28.501-108.373 42.752-159.744 48.512-37.12 5.76-74.24 2.731-105.6 0h-8.533c-20.053 0-62.72-8.533-119.893-31.36-19.925-8.661-31.36-14.336-31.36-14.336s42.752 42.752 136.96 65.579l-5.76 5.76s-71.339 2.731-148.352-54.187c0 0-77.013-134.144-77.013-299.52 0 0 42.667-74.24 159.701-77.056 0 0 17.067 22.741 34.347 42.752-65.707 19.968-91.307 59.904-91.307 59.904s5.717-2.816 14.293-8.533h2.56c1.28 0 1.877-.64 2.56-1.28v-.256c.683-.683 1.28-1.28 2.56-1.28 14.08-5.803 28.16-11.52 39.68-17.067 19.883-8.619 45.44-17.195 76.8-22.869 39.68-5.76 85.163-8.533 136.96 0 25.6 5.76 51.2 11.392 76.8 22.827 16.64 8.533 37.12 17.067 59.605 31.445 0 0-25.6-39.936-94.08-59.904 14.08-19.883 33.92-42.667 33.92-42.667 117.077 2.56 162.56 76.8 165.12 73.643 0 165.12-77.44 299.52-77.44 299.52-69.76 51.797-135.04 53.76-146.56 53.76l2.389.853zm7.168-188.288c29.995 0 54.187-25.6 54.187-56.96 0-31.573-24.32-57.173-54.187-57.173s-54.187 25.6-54.187 56.917c.085 31.573 24.448 57.088 54.187 57.088zm-193.835 0c29.867 0 54.016-25.6 54.016-56.96 0-31.573-24.32-57.173-54.187-57.173s-54.187 25.6-54.187 56.917c0 31.573 24.32 57.088 54.187 57.088z" glyph-name="discord" unicode=""/><glyph d="M877.716 676.081 585.635 384 877.716 91.919l-73.635-73.635L512 310.365 219.919 18.284l-73.635 73.635L438.365 384 146.284 676.081l73.635 73.635L512 457.635l292.081 292.081z" glyph-name="close" unicode=""/><glyph d="M331.429 632.571c0 31.429-20.571 52-52 52-30.857 0-62.286-20.571-62.286-52 0-30.857 31.429-51.429 62.286-51.429 31.429 0 52 20.571 52 51.429M756 342.857C756 363.428 735.429 384 704 384c-20.571 0-41.143-20.571-41.143-41.143 0-21.143 20.571-41.714 41.143-41.714 31.429 0 52 20.571 52 41.714M621.143 632.571c0 31.429-20.571 52-51.429 52-31.429 0-62.286-20.571-62.286-52 0-30.857 30.857-51.429 62.286-51.429 30.857 0 51.429 20.571 51.429 51.429M984 342.857C984 363.428 962.857 384 932 384c-20.571 0-41.143-20.571-41.143-41.143 0-21.143 20.571-41.714 41.143-41.714 30.857 0 52 20.571 52 41.714M832 569.714c-13.143 1.714-26.286 2.286-40 2.286-196.571 0-352-146.857-352-327.429 0-30.286 4.571-59.429 13.143-86.857C440 156.571 427.429 156 414.286 156c-52 0-93.143 10.286-145.143 20.571L124.572 104l41.143 124.571C62.286 301.142.001 394.857.001 508.571c0 197.143 186.286 352 414.286 352 203.429 0 382.286-124 417.714-290.857zm338.286-320.571c0-93.143-61.714-176-145.143-238.286l31.429-103.429-113.714 62.286c-41.714-10.286-83.429-21.143-124.571-21.143-197.143 0-352 134.857-352 300.571s154.857 300.571 352 300.571c186.286 0 352-134.857 352-300.571z" glyph-name="wechat, weixin" horiz-adv-x="1170" unicode=""/><glyph d="M534.613 895.147c55.893.853 111.36.427 166.827.853 3.413-65.28 26.88-131.84 74.667-177.92 47.787-47.36 115.2-69.12 180.907-76.373V469.76c-61.44 2.133-123.307 14.933-179.2 41.387-24.32 11.093-46.933 25.173-69.12 39.68-.427-124.587.427-249.173-.853-373.333-3.413-59.733-23.04-119.04-57.6-168.107-55.893-81.92-152.747-135.253-252.16-136.96-61.013-3.413-122.027 13.227-174.08 43.947C137.814-32.853 77.228 60.161 68.268 160.001c-.853 21.333-1.28 42.667-.427 63.573 7.68 81.067 47.787 158.72 110.08 211.627 70.827 61.44 169.813 90.88 262.4 73.387.853-63.147-1.707-126.293-1.707-189.44-42.24 13.653-91.733 9.813-128.853-15.787-26.88-17.493-47.36-44.373-58.027-74.667-8.96-21.76-6.4-45.653-5.973-68.693 10.24-69.973 77.653-128.853 149.333-122.453 47.787.427 93.44 28.16 118.187 68.693 8.107 14.08 17.067 28.587 17.493 45.227 4.267 76.373 2.56 152.32 2.987 228.693.427 171.947-.427 343.467.853 514.987z" glyph-name="tiktok" unicode=""/><glyph d="M981.315 851.191c23.564 0 42.666-19.102 42.666-42.666s-19.102-42.666-42.666-42.666h-79.873c-10.857 0-16.646-.028-20.818-.343l-.423-.033-.105-.411c-1.02-4.059-2.032-9.758-3.88-20.457L815.728 394.24c-3.573-20.701-6.669-38.634-10.406-53.282-3.96-15.513-9.402-30.663-19.378-44.632a127.96 127.96 0 0 0-60.048-45.776c-16.113-5.917-32.167-7.151-48.176-6.861-15.112.273-33.223 2.04-54.13 4.079l-463.316 45.17c-20.458 1.992-38.203 3.72-52.803 6.307-15.488 2.744-30.723 6.951-45.196 15.612a128 128 0 0 0-49.966 55.074c-7.215 15.245-9.924 30.818-11.149 46.492C.004 431.207.004 449.037.004 469.589v23.534c0 21.88 0 40.785 1.259 56.391 1.331 16.498 4.271 32.899 12.177 48.771a128 128 0 0 0 54.087 55.723c15.624 8.379 31.931 11.804 48.383 13.626 15.565 1.724 34.466 2.287 56.336 2.939l607.724 18.122 12.366 71.633c1.559 9.034 3.101 17.978 5.003 25.542 2.116 8.419 5.337 18.069 11.684 27.529a85.35 85.35 0 0 0 36.071 30.378c10.402 4.645 20.46 6.179 29.115 6.831zM637.911 101.314c29.106 0 53.179-23.846 53.179-53.852S667.018-6.39 637.911-6.39c-29.102 0-53.175 23.846-53.175 53.852s24.072 53.852 53.175 53.852M767.887 47.46c0 71.888-57.927 130.651-129.976 130.651-72.045 0-129.973-58.764-129.973-130.651 0-71.892 57.927-130.651 129.973-130.651 72.049 0 129.976 58.759 129.976 130.651m-564.968 53.854c29.102 0 53.179-23.846 53.179-53.852S232.021-6.39 202.919-6.39s-53.175 23.846-53.175 53.852 24.072 53.852 53.175 53.852M332.896 47.46c0 71.888-57.927 130.651-129.977 130.651-72.045 0-129.973-58.764-129.973-130.651 0-71.892 57.927-130.651 129.973-130.651 72.049 0 129.977 58.759 129.977 130.651" glyph-name="buy-now-cart" unicode=""/><glyph d="M512.167 109.623v109.75c0 10.289-8.003 18.292-18.292 18.292h-109.75c-10.289 0-18.292-8.003-18.292-18.292v-109.75c0-10.289 8.003-18.292 18.292-18.292h109.75c10.289 0 18.292 8.003 18.292 18.292M658.502 493.75c0 104.606-109.75 182.918-208.069 182.918-93.174 0-162.911-40.013-212.07-121.754-5.145-8.003-2.858-18.292 4.573-24.008l75.454-57.162c2.858-2.287 6.859-3.43 10.861-3.43 5.145 0 10.861 2.287 14.291 6.859 26.866 34.297 38.299 44.586 49.159 52.588 9.717 6.859 28.58 13.719 49.159 13.719 36.583 0 70.309-23.437 70.309-48.587 0-29.724-15.434-44.586-50.303-60.591-40.584-18.292-96.032-65.736-96.032-121.183v-20.578c0-10.289 8.003-18.292 18.292-18.292h109.75c10.289 0 18.292 8.003 18.292 18.292 0 13.147 16.576 41.157 43.443 56.59 43.443 24.579 102.891 57.733 102.891 144.619M878.003 384c0-242.366-196.636-439.003-439.003-439.003S-.003 141.633-.003 384 196.633 823.003 439 823.003 878.003 626.367 878.003 384" glyph-name="question-circle" horiz-adv-x="878" unicode=""/><glyph d="M815.823 223.651v526.062c0 81.584-64.704 146.287-146.287 146.287H146.29C64.706 896 .003 831.296.003 749.713V223.651c0-81.584 64.704-146.287 146.287-146.287h526.062c78.768 2.812 143.471 67.516 143.471 146.287m123.776 413.536v-452.92c0-126.592-104.086-230.678-230.678-230.678h-452.92c-16.88 0-25.32-19.695-14.064-30.946 28.132-30.946 67.516-50.64 115.343-50.64h376.968c160.351 0 289.756 129.405 289.756 289.756v376.968c0 45.008-19.695 87.209-50.64 115.343-14.064 11.249-33.757 0-33.757-16.88z" glyph-name="carousel" unicode=""/><glyph d="M214.009-127.927c-30.886.026-59.824 8.349-84.709 22.86l.802-.432-.146.097C79.507-75.762 46.161-21.79 46.097 39.976v688.135c0 92.762 75.198 167.961 167.961 167.961 30.832 0 59.723-8.307 84.558-22.806l-.796.43 596.079-344.162c50.573-29.566 84.009-83.602 84.009-145.447 0-61.864-33.456-115.915-83.262-145.046l-.794-.43-595.786-344.015c-24.119-14.131-53.107-22.489-84.043-22.525h-.01z" glyph-name="video" unicode=""/><glyph d="M806.38 846.809h157.088L620.366 454.756 1023.989-78.81H708.033L460.386 244.711 177.36-78.81H20.049l366.91 419.421L.024 846.809H323.99l223.617-295.708zM751.199 15.088h86.999l-561.601 742.72h-93.452z" glyph-name="twitter" unicode=""/><glyph d="M989.563 559.791c0 222.126-145.57 287.256-145.57 287.256-142.828 65.586-522.408 64.901-663.865 0 0 0-145.57-65.13-145.57-287.256 0-264.403-15.083-592.794 241.322-660.666 92.553-24.452 172.079-29.708 236.067-26.052 116.09 6.399 181.22 41.363 181.22 41.363l-3.885 84.326S606.327-27.29 513.09-24.319C420.766-21.12 323.415-14.264 308.332 99.085c-1.31 9.307-2.058 20.056-2.058 30.982l.001.825v-.043c195.618-47.762 362.67-20.795 408.602-15.311 128.202 15.311 239.951 94.38 254.12 166.594 22.395 113.806 20.567 277.658 20.567 277.658zM817.941 273.677H711.449v260.976c0 113.576-146.257 117.919-146.257-15.769V376.056H459.385v142.828c0 133.687-146.257 129.345-146.257 15.769V273.677h-106.95c0 279.029-11.884 337.988 42.049 399.919 59.187 66.044 182.363 70.386 237.209-13.94l26.508-44.563 26.508 44.563c55.074 84.782 178.478 79.526 237.209 13.94 54.161-62.387 42.049-121.118 42.049-399.919z" glyph-name="mastodon" unicode=""/><glyph d="M743.313 427.404c4.692-1.92 8.958-4.052 13.437-5.972 62.279-30.073 107.922-75.076 131.81-130.956 33.486-77.849 36.685-204.326-64.625-305.423-77.209-77.209-171.267-111.974-304.143-113.041h-.64c-149.725 1.066-264.685 51.401-342.108 149.725-68.891 87.446-104.296 209.232-105.576 361.73v1.066c1.066 152.498 36.472 274.283 105.362 361.73 77.422 98.324 192.595 148.659 342.321 149.725h.64c149.939-1.066 266.392-51.188 346.16-149.086 39.244-48.415 68.251-106.642 86.593-174.253l-86.167-23.035c-15.143 55.027-37.965 101.95-68.677 139.488-62.279 76.356-155.697 115.6-278.336 116.453-121.572-1.066-213.497-40.097-273.43-116.027-55.88-71.024-84.887-173.826-85.953-305.423 1.066-131.596 30.073-234.399 85.953-305.636 59.72-75.929 151.858-114.96 273.43-116.027 109.628.853 182.145 26.874 242.504 87.233 68.891 68.677 67.611 153.138 45.643 204.539-13.01 30.286-36.472 55.454-68.038 74.436-7.892-57.373-25.168-103.016-52.681-138.208-36.472-46.496-88.3-71.663-155.057-75.289-50.335-2.773-98.751 9.384-136.288 34.125-44.363 29.433-70.384 74.223-73.156 126.477-5.332 103.016 76.142 177.026 203.046 184.277 45.003 2.559 87.233.64 126.264-5.972-5.119 31.566-15.57 56.734-31.139 75.076-21.328 24.954-54.601 37.751-98.537 37.965h-1.493c-35.405 0-83.181-9.811-113.68-56.094l-73.37 50.335c40.951 62.066 107.282 96.191 187.263 96.191h1.706c133.516-.853 213.071-84.247 221.176-229.707l-.427-.427zM410.59 280.664c2.773-53.534 60.573-78.489 116.453-75.289 54.601 2.986 116.453 24.314 126.904 156.124-28.153 6.185-59.293 9.384-92.565 9.384-10.238 0-20.475-.213-30.713-.853-91.499-5.119-121.998-49.482-119.866-89.153z" glyph-name="threads" unicode=""/><glyph d="M221.91 773.783C339.394 685.871 465.73 507.23 512 411.271c46.27 95.758 172.605 274.398 290.09 362.512 84.693 63.57 221.893 112.656 221.893-43.855 0-31.182-17.904-262.529-28.365-300.148-36.613-130.359-169.789-163.754-288.279-143.436 207.006-35.205 259.713-151.885 145.85-268.564C637.13-203.911 542.781 73.303 518.64 144.317c-3.42 9.857-5.23 15.691-6.639 15.691s-3.219-6.035-6.639-15.691C481.221 73.303 386.671-203.911 170.813 17.78c-113.662 116.68-61.156 233.359 145.85 268.564-118.49-20.318-251.666 13.076-288.078 143.637C17.923 467.6.019 698.948.019 730.129c0 156.512 137.199 107.426 221.893 43.855z" glyph-name="bluesky" unicode=""/><glyph d="M704 256c-64-64-64-128-128-128s-128 64-192 128-128 128-128 192 64 64 128 128-128 256-192 256S0 640 0 640c0-128 131.5-387.5 256-512s384-256 512-256c0 0 192 128 192 192S768 320 704 256" glyph-name="phone" unicode=""/><glyph d="M2.243-97.539c-7.109-14.219 3.656-30.062 19.704-30.062 453.799-.813 792.421 437.954 543.787 937.864l-36.971 74.144c-7.72 15.438-29.454 15.438-37.175 0L2.242-97.536zm790.608 451.773c-7.718 15.439-29.658 15.439-37.174 0L643.142 134.445c-60.534-121.066 15.642-262.447 161.49-262.447h198.462c15.437 0 25.594 16.25 18.687 30.062z" glyph-name="avada-logo" unicode=""/><glyph d="M512 803.8c136.8 0 153-.6 206.8-3 50-2.2 77-10.6 95-17.6 23.8-9.2 41-20.4 58.8-38.2 18-18 29-35 38.4-58.8 7-18 15.4-45.2 17.6-95 2.4-54 3-70.2 3-206.8s-.6-153-3-206.8c-2.2-50-10.6-77-17.6-95-9.2-23.8-20.4-41-38.2-58.8-18-18-35-29-58.8-38.4-18-7-45.2-15.4-95-17.6-54-2.4-70.2-3-206.8-3s-153 .6-206.8 3c-50 2.2-77 10.6-95 17.6-23.8 9.2-41 20.4-58.8 38.2-18 18-29 35-38.4 58.8-7 18-15.4 45.2-17.6 95-2.4 54-3 70.2-3 206.8s.6 153 3 206.8c2.2 50 10.6 77 17.6 95 9.2 23.8 20.4 41 38.2 58.8 18 18 35 29 58.8 38.4 18 7 45.2 15.4 95 17.6 53.8 2.4 70 3 206.8 3m0 92.2c-139 0-156.4-.6-211-3-54.4-2.4-91.8-11.2-124.2-23.8C143 856 114.4 838.6 86 810c-28.6-28.4-46-57-59.2-90.6C14.2 686.8 5.4 649.6 3 595.2.6 540.4 0 523 0 384s.6-156.4 3-211c2.4-54.4 11.2-91.8 23.8-124.2C40 15 57.4-13.6 86-42c28.4-28.4 57-46 90.6-59 32.6-12.6 69.8-21.4 124.2-23.8 54.6-2.4 72-3 211-3s156.4.6 211 3c54.4 2.4 91.8 11.2 124.2 23.8 33.6 13 62.2 30.6 90.6 59s46 57 59 90.6c12.6 32.6 21.4 69.8 23.8 124.2 2.4 54.6 3 72 3 211s-.6 156.4-3 211c-2.4 54.4-11.2 91.8-23.8 124.2-12.6 34-30 62.6-58.6 91-28.4 28.4-57 46-90.6 59-32.6 12.6-69.8 21.4-124.2 23.8-54.8 2.6-72.2 3.2-211.2 3.2m0-249c-145.2 0-263-117.8-263-263s117.8-263 263-263 263 117.8 263 263-117.8 263-263 263m0-433.6c-94.2 0-170.6 76.4-170.6 170.6S417.8 554.6 512 554.6 682.6 478.2 682.6 384 606.2 213.4 512 213.4m334.8 444c0-33.91-27.49-61.4-61.4-61.4S724 623.49 724 657.4s27.49 61.4 61.4 61.4 61.4-27.49 61.4-61.4" glyph-name="instagram" unicode=""/><glyph d="M512 896C230.4 896 0 665.6 0 384s230.4-512 512-512 512 230.4 512 512-227.8 512-512 512m235.6-739.8c-10.2-15.4-28.2-20.4-43.6-10.2-120.4 74.2-271.4 89.6-450.6 48.6-18-5.2-33.2 7.6-38.4 23-5.2 18 7.6 33.2 23 38.4 194.6 43.6 363.6 25.6 496.6-56.4 18-7.6 20.6-28 13-43.4M809 297c-12.8-18-35.8-25.6-53.8-12.8C617 368.6 407 394.2 245.8 343c-20.4-5.2-43.6 5.2-48.6 25.6-5.2 20.4 5.2 43.6 25.6 48.6 186.8 56.4 417.2 28.2 576-69.2 15.2-7.6 23-33.2 10.2-51m5 143.4C650.2 537.6 376.2 548 220 499.2c-25.6-7.6-51.2 7.6-58.8 30.8-7.6 25.6 7.6 51.2 30.8 58.8 181.8 53.8 481.2 43.6 670.8-69.2 23-12.8 30.8-43.6 18-66.6-13-17.8-43.6-25.4-66.8-12.6" glyph-name="spotify" unicode=""/><glyph d="M96 896 0 736V0h256v-128h128L512 0h160l288 288v608zm736-544L672 192H512L384 64v128H192v576h640zM608 640h96V384h-96zm-192 0h96V384h-96z" glyph-name="twitch" unicode=""/><glyph d="M829 709.8V896H642.8l-18.6-18.8-88-167.4-27.6-18.6H195V435.6h172.4l15.4-18.6L195 58.2V-128h186.2l18.6 18.8 88 167.4 27.6 18.6H829v255.6H656.6l-15.4 18.8z" glyph-name="deviantart" unicode=""/><glyph d="M512.014 883.343C229.285 883.343.022 654.132.022 371.361c0-226.207 146.699-418.119 350.126-485.821 25.585-4.738 34.991 11.11 34.991 24.631 0 12.204-.48 52.54-.696 95.321C242-25.483 211.944 65.901 211.944 65.901c-23.281 59.174-56.846 74.913-56.846 74.913-46.45 31.777 3.509 31.123 3.509 31.123 51.399-3.61 78.473-52.765 78.473-52.765 45.67-78.268 119.773-55.639 148.999-42.557 4.588 33.085 17.851 55.678 32.505 68.462-113.727 12.942-233.269 56.849-233.269 253.024 0 55.896 20.003 101.57 52.758 137.423-5.316 12.899-22.853 64.97 4.952 135.495 0 0 43.005 13.752 140.836-52.489 40.834 11.348 84.634 17.036 128.15 17.233 43.501-.198 87.333-5.886 128.252-17.233 97.731 66.241 140.652 52.489 140.652 52.489 27.871-70.526 10.35-122.596 5.035-135.495 32.819-35.855 52.692-81.529 52.692-137.423 0-196.648-119.775-239.942-233.783-252.616 18.363-15.889 34.723-47.044 34.723-94.809 0-68.506-.596-123.641-.596-140.504 0-13.628 9.221-29.593 35.171-24.565 203.316 67.774 349.831 259.618 349.831 485.753 0 282.771-229.227 511.982-511.976 511.982z" glyph-name="github" unicode=""/><glyph d="M608.876 242.532c-17.282-17.426-2.668-49.128-2.668-49.128l130.09-217.218s21.36-28.64 39.864-28.64c18.59 0 36.954 15.27 36.954 15.27L915.96 109.824s10.36 18.546 10.598 34.792c.372 23.106-34.454 29.434-34.454 29.434l-243.488 78.192c-.002-.004-23.858 6.328-39.74-9.71m-12.344 109.484c12.46-21.128 46.828-14.972 46.828-14.972l242.938 71.006s33.106 13.466 37.832 31.418c4.64 17.954-5.46 39.622-5.46 39.622L802.572 615.842s-10.062 17.292-30.938 19.032c-23.016 1.958-37.18-25.898-37.18-25.898l-137.27-216.01c0-.004-12.134-21.516-.652-40.95m-114.778 84.216c28.608 7.044 33.148 48.604 33.148 48.604l-1.944 345.87s-4.314 42.666-23.486 54.232c-30.07 18.242-38.982 8.718-47.596 7.444L240.18 817.438s-19.754-6.536-30.042-23.018c-14.69-23.352 14.928-57.544 14.928-57.544L434.71 451.12s20.69-21.396 47.044-14.888m-49.81-139.97c.722 26.676-32.03 42.7-32.03 42.7L183.118 448.486s-32.126 13.246-47.722 4.016c-11.95-7.06-22.536-19.84-23.572-31.134l-14.12-173.812s-2.116-30.114 5.69-43.82c11.054-19.442 47.428-5.902 47.428-5.902l253.096 55.942c9.832 6.61 27.074 7.204 28.026 42.486m62.936-93.804c-21.726 11.156-47.724-11.95-47.724-11.95L277.688 3.942s-21.144-28.528-15.768-46.05c5.066-16.418 13.454-24.578 25.318-30.328l170.192-53.726s20.634-4.286 36.258.242c22.18 6.43 18.094 41.152 18.094 41.152l3.848 252.602c-.002-.002-.868 24.334-20.75 34.624" glyph-name="yelp" unicode=""/><glyph d="M658.286 411.428q0 105.714-75.143 180.857t-180.857 75.143-180.857-75.143-75.143-180.857 75.143-180.857 180.857-75.143 180.857 75.143 75.143 180.857M950.857-64q0-29.714-21.714-51.429t-51.429-21.714q-30.857 0-51.429 21.714L630.285 80q-102.286-70.857-228-70.857-81.714 0-156.286 31.714t-128.571 85.714-85.714 128.571T0 411.428t31.714 156.286 85.714 128.571 128.571 85.714 156.286 31.714 156.286-31.714 128.571-85.714 85.714-128.571 31.714-156.286q0-125.714-70.857-228l196-196q21.143-21.143 21.143-51.429z" glyph-name="search" horiz-adv-x="951" unicode=""/><glyph d="M950.857 517.143q0-12.571-14.857-27.429L728.571 287.428 777.714 1.714q.571-4 .571-11.429 0-12-6-20.286t-17.429-8.286q-10.857 0-22.857 6.857L475.428 103.427 218.857-31.43Q206.286-38.287 196-38.287q-12 0-18 8.286t-6 20.286q0 3.429 1.143 11.429l49.143 285.714-208 202.286Q0 505.143 0 517.143q0 21.143 32 26.286l286.857 41.714 128.571 260q10.857 23.429 28 23.429t28-23.429l128.571-260 286.857-41.714q32-5.143 32-26.286z" glyph-name="star" horiz-adv-x="951" unicode=""/><glyph d="m649.714 313.143 174.857 169.714-241.143 35.429-108 218.286-108-218.286-241.143-35.429 174.857-169.714-41.714-240.571 216 113.714L690.857 72.572zm301.143 204q0-12.571-14.857-27.429L728.571 287.428 777.714 1.714q.571-4 .571-11.429 0-28.571-23.429-28.571-10.857 0-22.857 6.857L475.428 103.428 218.857-31.429Q206.286-38.286 196-38.286q-12 0-18 8.286t-6 20.286q0 3.429 1.143 11.429l49.143 285.714-208 202.286Q0 505.144 0 517.144q0 21.143 32 26.286l286.857 41.714 128.571 260q10.857 23.429 28 23.429t28-23.429l128.571-260 286.857-41.714q32-5.143 32-26.286z" glyph-name="star-o" horiz-adv-x="951" unicode=""/><glyph d="m347.796 17.191-332.8 332.8c-19.994 19.994-19.994 52.412 0 72.408l72.406 72.408c19.994 19.996 52.414 19.996 72.408 0L384 270.617l480.19 480.19c19.994 19.994 52.414 19.994 72.408 0l72.406-72.408c19.994-19.994 19.994-52.412 0-72.408l-588.8-588.802c-19.996-19.994-52.414-19.994-72.406.002z" glyph-name="check" unicode=""/><glyph d="M585.143 374.857q0 60.571-42.857 103.429t-103.429 42.857-103.429-42.857-42.857-103.429 42.857-103.429 103.429-42.857 103.429 42.857 42.857 103.429m292.571 62.286V310.286q0-6.857-4.571-13.143t-11.429-7.429l-105.714-16q-10.857-30.857-22.286-52 20-28.571 61.143-78.857 5.714-6.857 5.714-14.286t-5.143-13.143q-15.429-21.143-56.571-61.714t-53.714-40.571q-6.857 0-14.857 5.143L591.429 80q-25.143-13.143-52-21.714Q530.286-19.428 522.858-48q-4-16-20.571-16H375.43q-8 0-14 4.857t-6.571 12.286l-16 105.143q-28 9.143-51.429 21.143l-80.571-61.143q-5.714-5.143-14.286-5.143-8 0-14.286 6.286-72 65.143-94.286 96-4 5.714-4 13.143 0 6.857 4.571 13.143 8.571 12 29.143 38t30.857 40.286q-15.429 28.571-23.429 56.571L16.572 292.001q-7.429 1.143-12 7.143T.001 312.573V439.43q0 6.857 4.571 13.143t10.857 7.429l106.286 16q8 26.286 22.286 52.571-22.857 32.571-61.143 78.857-5.714 6.857-5.714 13.714 0 5.714 5.143 13.143 14.857 20.571 56.286 61.429t54 40.857q7.429 0 14.857-5.714l78.857-61.143q25.143 13.143 52 21.714 9.143 77.714 16.571 106.286 4 16 20.571 16h126.857q8 0 14-4.857t6.571-12.286l16-105.143q28-9.143 51.429-21.143l81.143 61.143q5.143 5.143 13.714 5.143 7.429 0 14.286-5.714 73.714-68 94.286-97.143 4-4.571 4-12.571 0-6.857-4.571-13.143-8.571-12-29.143-38t-30.857-40.286q14.857-28.571 23.429-56l104.571-16q7.429-1.143 12-7.143t4.571-13.429z" glyph-name="gear" unicode=""/><glyph d="M974.8 264.6c9.799-5.6 14.199-17.199 11.199-28.199-22.199-71.4-60-135.801-109.4-189.201-7.6-8.398-19.799-10.199-29.6-4.6L761.8 91.801c-36-30.602-77.201-54.4-121.602-70.201v-98.4c0-11.199-7.799-21-18.799-23.398-69.801-15.602-145-16.4-218.4 0-11 2.398-18.801 12.199-18.801 23.398v98.4a377.5 377.5 0 0 0-121.6 70.201L177.399 42.6c-9.6-5.6-22-3.6-29.6 4.6-49.4 53.602-87.201 118-109.4 189.201-3.201 10.799 1.199 22.4 11 28l85.199 49.199c-8.6 46.4-8.6 94 0 140.4l-85.199 49.199c-9.801 5.602-14.4 17.201-11 28 22.199 71.4 60 135.801 109.4 189.201 7.6 8.4 19.799 10.199 29.6 4.6l85-49.199c36 30.6 77.199 54.398 121.6 70.199v98.4c0 11.199 7.801 21 18.801 23.4 69.799 15.6 145 16.398 218.398 0 11-2.4 18.801-12.201 18.801-23.4v-98.201A377.4 377.4 0 0 0 761.599 676l85.201 49.199c9.6 5.602 22 3.602 29.6-4.6 49.4-53.6 87.199-118 109.4-189.199 3.199-10.801-1.201-22.4-11-28l-85.201-49.201c8.6-46.398 8.6-94 0-140.398zM512 224c88.199 0 160 71.801 160 160s-71.801 160-160 160-160-71.801-160-160 71.801-160 160-160" glyph-name="cog" unicode=""/><glyph d="M804.571 355.428V173.714q0-68-48.286-116.286T639.999 9.142H164.57q-68 0-116.286 48.286T-.002 173.714v475.429q0 68 48.286 116.286t116.286 48.286h475.429q36 0 66.857-14.286 8.571-4 10.286-13.143 1.714-9.714-5.143-16.571l-28-28q-5.714-5.714-13.143-5.714-1.714 0-5.143 1.143-13.143 3.429-25.714 3.429H164.57q-37.714 0-64.571-26.857t-26.857-64.571V173.716q0-37.714 26.857-64.571t64.571-26.857h475.429q37.714 0 64.571 26.857t26.857 64.571v145.143q0 7.429 5.143 12.571l36.571 36.571q5.714 5.714 13.143 5.714 3.429 0 6.857-1.714 11.429-4.571 11.429-16.571zm132 279.429L471.428 169.714Q457.714 156 438.857 156t-32.571 13.714L160.572 415.428q-13.714 13.714-13.714 32.571t13.714 32.571l62.857 62.857q13.714 13.714 32.571 13.714t32.571-13.714l150.286-150.286 369.714 369.714q13.714 13.714 32.571 13.714t32.571-13.714l62.857-62.857q13.714-13.714 13.714-32.571t-13.714-32.571z" glyph-name="check-square-o" horiz-adv-x="951" unicode=""/><glyph d="M1008 384c0-273.934-222.066-496-496-496S16 110.066 16 384s222.066 496 496 496 496-222.066 496-496M454.628 121.371l368 368c12.494 12.496 12.494 32.76 0 45.256l-45.256 45.254c-12.494 12.498-32.758 12.498-45.256 0L431.998 279.763 291.881 419.882c-12.496 12.496-32.76 12.496-45.256 0l-45.256-45.254c-12.494-12.496-12.494-32.76 0-45.256l208-208c12.498-12.496 32.76-12.496 45.258-.002z" glyph-name="check-circle" unicode=""/><glyph d="M512 880c273.914 0 496-222.166 496-496 0-273.994-222.086-496-496-496S16 110.006 16 384c0 273.834 222.086 496 496 496m0-220c-46.393 0-84-37.607-84-84s37.607-84 84-84 84 37.607 84 84-37.607 84-84 84m112-508v48c0 13.254-10.746 24-24 24h-24v200c0 13.254-10.746 24-24 24H424c-13.254 0-24-10.746-24-24v-48c0-13.254 10.746-24 24-24h24V224h-24c-13.254 0-24-10.746-24-24v-48c0-13.254 10.746-24 24-24h176c13.254 0 24 10.746 24 24" glyph-name="info-circle" unicode=""/><glyph d="M669.143 422.286 428 181.143q-10.857-10.857-25.714-10.857t-25.714 10.857l-168 168Q197.715 360 197.715 374.857t10.857 25.714l58.286 58.286q10.857 10.857 25.714 10.857t25.714-10.857l84-84L559.429 532q10.857 10.857 25.714 10.857T610.857 532l58.286-58.286Q680 462.857 680 448t-10.857-25.714m80.571-47.429q0 84.571-41.714 156T594.857 644t-156 41.714-156-41.714-113.143-113.143-41.714-156 41.714-156 113.143-113.143 156-41.714 156 41.714T708 218.857t41.714 156m128 0q0-119.429-58.857-220.286T659.143-5.143 438.857-64 218.571-5.143 58.857 154.571 0 374.857t58.857 220.286 159.714 159.714 220.286 58.857 220.286-58.857 159.714-159.714 58.857-220.286" glyph-name="check-circle-o" unicode=""/><glyph d="M950.857 347.429c-54.286 84-128.571 156-217.714 201.714C756 510.286 768 465.714 768 420.572c0-141.143-114.857-256-256-256s-256 114.857-256 256c0 45.143 12 89.714 34.857 128.571-89.143-45.714-163.429-117.714-217.714-201.714 97.714-150.857 255.429-256 438.857-256s341.143 105.143 438.857 256M539.429 566.857c0 14.857-12.571 27.429-27.429 27.429-95.429 0-173.714-78.286-173.714-173.714 0-14.857 12.571-27.429 27.429-27.429s27.429 12.571 27.429 27.429c0 65.143 53.714 118.857 118.857 118.857 14.857 0 27.429 12.571 27.429 27.429zM1024 347.429c0-14.286-4.571-27.429-11.429-39.429C907.428 134.857 714.857 18.286 512 18.286S116.571 135.429 11.429 308C4.572 320 0 333.143 0 347.429s4.571 27.429 11.429 39.429C116.572 559.429 309.143 676.572 512 676.572s395.429-117.143 500.571-289.714c6.857-12 11.429-25.143 11.429-39.429" glyph-name="eye" unicode=""/><glyph d="m317.143 133.143 44.571 80.571C295.428 261.714 256 338.857 256 420.571c0 45.143 12 89.714 34.857 128.571-89.143-45.714-163.429-117.714-217.714-201.714 59.429-92 143.429-169.143 244-214.286zm222.286 433.714c0 14.857-12.571 27.429-27.429 27.429-95.429 0-173.714-78.286-173.714-173.714 0-14.857 12.571-27.429 27.429-27.429s27.429 12.571 27.429 27.429c0 65.714 53.714 118.857 118.857 118.857 14.857 0 27.429 12.571 27.429 27.429zM746.857 676c0-1.143 0-4-.571-5.143-120.571-215.429-240-432-360.571-647.429l-28-50.857c-3.429-5.714-9.714-9.143-16-9.143-10.286 0-64.571 33.143-76.571 40-5.714 3.429-9.143 9.143-9.143 16 0 9.143 19.429 40 25.143 49.714-110.857 50.286-204 136-269.714 238.857C4.001 319.428.001 333.142.001 347.428c0 13.714 4 28 11.429 39.429 113.143 173.714 289.714 289.714 500.571 289.714 34.286 0 69.143-3.429 102.857-9.714l30.857 55.429c3.429 5.714 9.143 9.143 16 9.143 10.286 0 64-33.143 76-40 5.714-3.429 9.143-9.143 9.143-15.429zM768 420.571c0-106.286-65.714-201.143-164.571-238.857l160 286.857c2.857-16 4.571-32 4.571-48m256-73.142c0-14.857-4-26.857-11.429-39.429-17.714-29.143-40-57.143-62.286-82.857-112-128.571-266.286-206.857-438.286-206.857l42.286 75.429c166.286 14.286 307.429 115.429 396.571 253.714-42.286 65.714-96.571 123.429-161.143 168l36 64C896.57 532 967.999 460.572 1012.57 386.858c7.429-12.571 11.429-24.571 11.429-39.429z" glyph-name="eye-slash" unicode=""/><glyph d="M585.152 73.678v108.584c0 10.287-8.001 18.859-18.288 18.859H457.137c-10.287 0-18.288-8.572-18.288-18.859V73.678c0-10.287 8.001-18.859 18.288-18.859h109.727c10.287 0 18.288 8.572 18.288 18.859m-1.143 213.739 10.287 262.317c0 3.43-1.714 8.001-5.715 10.858-3.43 2.857-8.572 6.287-13.716 6.287H449.136c-5.144 0-10.287-3.43-13.716-6.287-4-2.857-5.715-8.572-5.715-12.001l9.715-261.174c0-7.43 8.572-13.144 19.431-13.144h105.727c10.287 0 18.859 5.715 19.431 13.144m-8.001 533.777 438.909-804.666c12.573-22.289 12.001-49.72-1.143-72.009s-37.147-36.004-62.865-36.004H73.091c-25.717 0-49.72 13.716-62.865 36.004S-3.49-5.761 9.083 16.528l438.909 804.666c12.573 23.432 37.147 38.29 64.008 38.29s51.435-14.859 64.008-38.29" glyph-name="exclamation-triangle" unicode=""/><glyph d="M365.714 9.143q0-30.286-21.429-51.714T292.571-64t-51.714 21.429-21.429 51.714 21.429 51.714 51.714 21.429 51.714-21.429 21.429-51.714m512 0q0-30.286-21.429-51.714T804.571-64t-51.714 21.429-21.429 51.714 21.429 51.714 51.714 21.429 51.714-21.429 21.429-51.714m73.143 621.714V338.286q0-13.714-9.143-24.286t-23.429-12.286L321.714 232q.571-4 2.571-12.286t3.429-15.143T329.143 192q0-9.143-13.714-36.571h525.714q14.857 0 25.714-10.857t10.857-25.714-10.857-25.714-25.714-10.857H256q-14.857 0-25.714 10.857t-10.857 25.714q0 8 6.286 22.571t16.857 34 11.714 21.714L153.143 667.429H36.572q-14.857 0-25.714 10.857T.001 704t10.857 25.714 25.714 10.857h146.286q9.143 0 16.286-3.714T210.573 728t7.429-14 4.286-15.143T225.431 682t2.571-14.571h686.286q14.857 0 25.714-10.857t10.857-25.714z" glyph-name="shopping-cart" horiz-adv-x="951" unicode=""/><glyph d="M877.714 118.857V45.714q0-14.857-10.857-25.714T841.143 9.143H36.572Q21.715 9.143 10.858 20T.001 45.714v73.143q0 14.857 10.857 25.714t25.714 10.857h804.571q14.857 0 25.714-10.857t10.857-25.714m0 292.571v-73.143q0-14.857-10.857-25.714t-25.714-10.857H36.572q-14.857 0-25.714 10.857T.001 338.285v73.143q0 14.857 10.857 25.714t25.714 10.857h804.571q14.857 0 25.714-10.857t10.857-25.714m0 292.572v-73.143q0-14.857-10.857-25.714t-25.714-10.857H36.572q-14.857 0-25.714 10.857T.001 630.857V704q0 14.857 10.857 25.714t25.714 10.857h804.571q14.857 0 25.714-10.857T877.714 704" glyph-name="bars" unicode=""/><glyph d="M365.714 630.857v-512q0-14.857-10.857-25.714t-25.714-10.857-25.714 10.857l-256 256Q36.572 360 36.572 374.857t10.857 25.714l256 256q10.857 10.857 25.714 10.857t25.714-10.857 10.857-25.714" glyph-name="caret-left" horiz-adv-x="366" unicode=""/><glyph d="M329.143 374.857q0-14.857-10.857-25.714l-256-256Q51.429 82.286 36.572 82.286T10.858 93.143.001 118.857v512q0 14.857 10.857 25.714t25.714 10.857 25.714-10.857l256-256q10.857-10.857 10.857-25.714" glyph-name="caret-right" horiz-adv-x="366" unicode=""/><glyph d="M358.286 576q0-7.429-5.714-13.143L128.001 338.286l224.571-224.571q5.714-5.714 5.714-13.143t-5.714-13.143l-28.571-28.571q-5.714-5.714-13.143-5.714t-13.143 5.714L31.429 325.144q-5.714 5.714-5.714 13.143t5.714 13.143l266.286 266.286q5.714 5.714 13.143 5.714t13.143-5.714l28.571-28.571q5.714-5.714 5.714-13.143z" glyph-name="angle-left" horiz-adv-x="366" unicode=""/><glyph d="M340 338.286q0-7.429-5.714-13.143L68 58.857q-5.714-5.714-13.143-5.714t-13.143 5.714L13.143 87.428q-5.714 5.714-5.714 13.143t5.714 13.143l224.571 224.571L13.143 562.856q-5.714 5.714-5.714 13.143t5.714 13.143l28.571 28.571q5.714 5.714 13.143 5.714T68 617.713l266.286-266.286Q340 345.713 340 338.284z" glyph-name="angle-right" horiz-adv-x="366" unicode=""/><glyph d="M614.286 210.286q0-7.429-5.714-13.143l-28.571-28.571q-5.714-5.714-13.143-5.714t-13.143 5.714L329.144 393.143 104.573 168.572q-5.714-5.714-13.143-5.714t-13.143 5.714l-28.571 28.571q-5.714 5.714-5.714 13.143t5.714 13.143l266.286 266.286q5.714 5.714 13.143 5.714t13.143-5.714l266.286-266.286q5.714-5.714 5.714-13.143z" glyph-name="angle-up" horiz-adv-x="658" unicode=""/><glyph d="M614.286 457.143q0-7.429-5.714-13.143L342.286 177.714Q336.572 172 329.143 172T316 177.714L49.714 444Q44 449.714 44 457.143t5.714 13.143l28.571 28.571q5.714 5.714 13.143 5.714t13.143-5.714l224.571-224.571 224.571 224.571q5.714 5.714 13.143 5.714t13.143-5.714l28.571-28.571q5.714-5.714 5.714-13.143z" glyph-name="angle-down" horiz-adv-x="658" unicode=""/><glyph d="M283.429 118.857q0-34.286-24.286-58.286t-58-24q-34.286 0-58.286 24t-24 58.286 24 58.286 58.286 24q33.714 0 58-24t24.286-58.286M530.286 9.143q0-30.286-21.429-51.714T457.143-64t-51.714 21.429T384 9.143t21.429 51.714 51.714 21.429 51.714-21.429 21.429-51.714M182.857 374.857q0-37.714-26.857-64.571t-64.571-26.857-64.571 26.857T.001 374.857t26.857 64.571 64.571 26.857T156 439.428t26.857-64.571m594.286-256q0-26.286-18.857-45.143t-45.143-18.857T668 73.714t-18.857 45.143T668 164t45.143 18.857T758.286 164t18.857-45.143m-475.429 512q0-41.714-29.429-71.143t-71.143-29.429-71.143 29.429-29.429 71.143T129.999 702t71.143 29.429T272.285 702t29.429-71.143m265.143 109.714q0-45.714-32-77.714t-77.714-32-77.714 32-32 77.714 32 77.714 77.714 32 77.714-32 32-77.714m310.857-365.714q0-22.857-16-38.857t-38.857-16T784 336t-16 38.857 16 38.857 38.857 16 38.857-16 16-38.857m-118.857 256q0-18.857-13.429-32.286t-32.286-13.429-32.286 13.429-13.429 32.286 13.429 32.286 32.286 13.429 32.286-13.429 13.429-32.286" glyph-name="spinner" horiz-adv-x="896" unicode=""/><glyph d="M1095.429 589.714q13.143-36.571-85.714-168-13.714-18.286-37.143-48.571-44.571-57.143-51.429-74.857-9.714-23.429 8-46.286 9.714-12 46.286-46.857H976l2.286-2.286Q1058.857 128 1087.429 76.571q1.714-2.857 3.714-7.143t4-15.143-.286-19.429-14.286-15.714-33.714-7.143L900.571 9.713q-13.714-2.857-32 2.857t-29.714 12.571l-11.429 6.857q-17.143 12-40 36.571t-39.143 44.286-34.857 33.143-32.286 8.857q-1.714-.571-4.571-2t-9.714-8.286-12.286-16.857-9.714-29.714-3.714-44.286q0-8.571-2-15.714t-4.286-10.571l-2.286-2.857q-10.286-10.857-30.286-12.571h-65.714Q496 9.713 453.142 21.428t-75.143 30.286-58.857 37.714-40.286 32.857l-14.286 13.714q-5.714 5.714-15.714 17.143t-40.857 52-60.571 86.286-70 120.571T2.857 567.428q-3.429 9.143-3.429 15.429T1.142 592l2.286 3.429q8.571 10.857 32.571 10.857l156.571 1.143q6.857-1.143 13.143-3.714t9.143-4.857l2.857-1.714q9.143-6.286 13.714-18.286 11.429-28.571 26.286-59.143t23.429-46.571l9.143-16.571q16.571-34.286 32-59.429t27.714-39.143 23.714-22 19.429-8 15.429 2.857q1.143.571 2.857 2.857t6.857 12.571 7.714 26.857 5.429 46.286 0 71.429q-1.143 22.857-5.143 41.714t-8 26.286l-3.429 6.857q-14.286 19.429-48.571 24.571-7.429 1.143 2.857 13.714 9.714 10.857 21.714 17.143Q421.142 636 527.427 634.857q46.857-.571 77.143-7.429 11.429-2.857 19.143-7.714T635.427 606t6-18.286 2-26-.571-31.429-1.429-40.286-.857-47.143q0-6.286-.571-24t-.286-27.429 2-23.143 6.571-22.286 12.857-14q4.571-1.143 9.714-2.286t14.857 6.286 21.714 19.714 29.714 38.286 38.857 61.429q34.286 59.429 61.143 128.571 2.286 5.714 5.714 10t6.286 6l2.286 1.714 2.857 1.429 7.429 1.714 11.429.286 164.571 1.143q22.286 2.857 36.571-1.429t17.714-9.429z" glyph-name="vk" horiz-adv-x="1097" unicode=""/><glyph d="M1008 889.714c12-8.571 17.714-22.286 15.429-36.571L877.143-24.571c-1.714-10.857-8.571-20-18.286-25.714-5.143-2.857-11.429-4.571-17.714-4.571-4.571 0-9.143 1.143-13.714 2.857L568.572 53.715 430.286-114.856c-6.857-8.571-17.143-13.143-28-13.143-4 0-8.571.571-12.571 2.286-14.286 5.143-24 18.857-24 34.286v199.429l493.714 605.143-610.857-528.571-225.714 92.571C9.715 282.288 1.144 294.288.001 308.574c-.571 13.714 6.286 26.857 18.286 33.714l950.857 548.571c5.714 3.429 12 5.143 18.286 5.143 7.429 0 14.857-2.286 20.571-6.286z" glyph-name="telegram" horiz-adv-x="1025" unicode=""/><glyph d="M562.857 339.429c9.714 0 102.857-48.571 106.857-55.429 1.143-2.857 1.143-6.286 1.143-8.571 0-14.286-4.571-30.286-9.714-43.429-13.143-32-66.286-52.571-98.857-52.571-27.429 0-84 24-108.571 35.429-81.714 37.143-132.571 100.571-181.714 173.143-21.714 32-41.143 71.429-40.571 110.857v4.571c1.143 37.714 14.857 64.571 42.286 90.286 8.571 8 17.714 12.571 29.714 12.571 6.857 0 13.714-1.714 21.143-1.714 15.429 0 18.286-4.571 24-19.429 4-9.714 33.143-87.429 33.143-93.143 0-21.714-39.429-46.286-39.429-59.429 0-2.857 1.143-5.714 2.857-8.571 12.571-26.857 36.571-57.714 58.286-78.286C429.716 320.571 457.716 304 489.716 288c4-2.286 8-4 12.571-4 17.143 0 45.714 55.429 60.571 55.429zm-116-302.858c197.714 0 358.857 161.143 358.857 358.857S644.571 754.285 446.857 754.285 88 593.142 88 395.428c0-75.429 24-149.143 68.571-210.286L111.428 51.999l138.286 44C308 57.713 377.143 36.57 446.857 36.57zm0 789.715c237.714 0 430.857-193.143 430.857-430.857S684.571-35.428 446.857-35.428c-72.571 0-144.571 18.286-208.571 53.714L0-58.285l77.714 231.429C37.143 240.001 16 317.144 16 395.43c0 237.714 193.143 430.857 430.857 430.857z" glyph-name="whatsapp" horiz-adv-x="878" unicode=""/><glyph d="M521.138 822.851c102.857 1.143 188-56.571 230.857-149.143 13.143-28 15.429-71.429 15.429-102.286 0-36.571-2.857-72.571-5.143-109.143 4.571-2.286 10.857-4 16-4 20.571 0 37.714 15.429 58.286 15.429 19.429 0 47.429-13.714 47.429-36.571 0-54.857-114.857-44.571-114.857-92.571 0-8.571 3.429-16.571 6.857-24.571 27.429-60 79.429-117.714 141.143-143.429 14.857-6.286 29.714-9.714 45.714-13.143 10.286-2.286 16-9.714 16-20 0-38.857-98.857-54.857-125.143-58.857-11.429-17.714-2.857-59.429-33.143-59.429-23.429 0-46.857 7.429-72 7.429-12 0-24-.571-35.429-2.857-68-11.429-90.857-84.571-202.286-84.571-107.429 0-133.143 73.143-199.429 84.571-12 2.286-24 2.857-36 2.857-25.714 0-50.286-8.571-70.857-8.571-32 0-22.286 42.286-34.286 60.571-26.286 4-125.143 20-125.143 58.857 0 10.286 5.714 17.714 16 20 16 3.429 30.857 6.857 45.714 13.143 61.143 25.143 114.286 83.429 141.143 143.429 3.429 8 6.857 16 6.857 24.571 0 48-115.429 38.857-115.429 92 0 22.286 26.286 36.571 46.286 36.571 17.714 0 35.429-14.857 57.714-14.857 6.286 0 12.571 1.143 18.286 4-2.286 36-5.143 72-5.143 108.571 0 30.857 2.286 74.857 15.429 102.857 50.286 108.571 135.429 148 249.143 149.143z" glyph-name="snapchat" unicode=""/></font>
</defs>
</svg>
